<svg xmlns="http://www.w3.org/2000/svg" width="117" height="129" viewBox="0 0 117 129" fill="none">
  <path d="M113.867 94.4143C116.906 96.2589 117.898 100.24 115.76 103.079C110.267 110.371 103.269 116.431 95.2152 120.832C85.273 126.264 74.0729 128.976 62.7469 128.693C51.4209 128.409 40.3704 125.141 30.7124 119.218C21.0543 113.295 13.1309 104.928 7.74304 94.9616C2.3552 84.9951 -0.306144 73.783 0.0279954 62.4584C0.362135 51.1338 3.67992 40.098 9.646 30.4666C15.6121 20.8352 24.015 12.9494 34.0055 7.60634C42.0988 3.27791 51.0016 0.742418 60.1108 0.140175C63.6573 -0.094303 66.4451 2.91683 66.3243 6.46908C66.2036 10.0213 63.2163 12.7613 59.6767 13.0844C52.8376 13.7086 46.1698 15.6971 40.0757 18.9564C32.0833 23.2308 25.361 29.5394 20.5881 37.2446C15.8152 44.9497 13.161 53.7783 12.8937 62.838C12.6264 71.8977 14.7554 80.8674 19.0657 88.8405C23.376 96.8137 29.7147 103.508 37.4412 108.246C45.1676 112.984 54.008 115.599 63.0688 115.825C72.1296 116.052 81.0897 113.883 89.0434 109.537C95.108 106.223 100.424 101.733 104.692 96.3531C106.901 93.5686 110.829 92.5698 113.867 94.4143Z" fill="url(#paint0_linear_25_686)"/>
  <defs>
    <linearGradient id="paint0_linear_25_686" x1="3.36749" y1="12.1427" x2="129.313" y2="21.7537" gradientUnits="userSpaceOnUse">
      <stop stop-color="#FD6F00"/>
      <stop offset="1" stop-color="#E46400"/>
    </linearGradient>
  </defs>
</svg>
