<svg xmlns="http://www.w3.org/2000/svg" width="131" height="130" viewBox="0 0 131 130" fill="none">
  <path d="M124 65C127.59 65 130.534 67.9175 130.175 71.4894C129.115 82.0523 125.48 92.2304 119.546 101.112C112.403 111.801 102.252 120.132 90.3744 125.052C78.4972 129.972 65.4279 131.259 52.8191 128.751C40.2104 126.243 28.6285 120.052 19.5381 110.962C10.4476 101.872 4.257 90.2896 1.74896 77.6809C-0.759083 65.0721 0.528134 52.0028 5.44783 40.1256C10.3675 28.2484 18.6987 18.0968 29.3879 10.9545C38.2696 5.01996 48.4477 1.38453 59.0106 0.324705C62.5825 -0.0336793 65.5 2.91015 65.5 6.5C65.5 10.0899 62.5786 12.9581 59.0168 13.4057C51.0294 14.4094 43.3529 17.2583 36.6103 21.7636C28.059 27.4774 21.394 35.5987 17.4583 45.1005C13.5225 54.6022 12.4927 65.0577 14.4992 75.1447C16.5056 85.2317 21.4581 94.4972 28.7304 101.77C36.0028 109.042 45.2683 113.994 55.3553 116.001C65.4423 118.007 75.8978 116.977 85.3995 113.042C94.9013 109.106 103.023 102.441 108.736 93.8896C113.242 87.1471 116.091 79.4706 117.094 71.4832C117.542 67.9214 120.41 65 124 65Z" fill="url(#paint0_linear_25_662)"/>
  <defs>
    <linearGradient id="paint0_linear_25_662" x1="3.90116" y1="12.2641" x2="131.106" y2="21.9712" gradientUnits="userSpaceOnUse">
      <stop stop-color="#FD6F00"/>
      <stop offset="1" stop-color="#E46400"/>
    </linearGradient>
  </defs>
</svg>