<svg xmlns="http://www.w3.org/2000/svg" width="93" height="130" viewBox="0 0 93 130" fill="none">
  <path d="M91.3937 117.58C92.9673 120.807 91.6357 124.731 88.2681 125.975C81.1197 128.615 73.5462 129.983 65.8921 130C56.0661 130.021 46.3631 127.815 37.5127 123.546C28.6624 119.278 20.8949 113.058 14.7945 105.355C8.694 97.6522 4.41932 88.6664 2.29184 79.0735C0.164367 69.4805 0.239461 59.5301 2.51148 49.9704C4.7835 40.4107 9.19331 31.4904 15.4093 23.8805C21.6253 16.2705 29.4858 10.1688 38.3996 6.03429C45.3431 2.81365 52.785 0.851904 60.3792 0.222255C63.9568 -0.0743645 66.8228 2.91942 66.7608 6.50873C66.6988 10.098 63.7283 12.9154 60.1593 13.3014C54.5333 13.9098 49.0295 15.4341 43.8697 17.8274C36.7386 21.1351 30.4503 26.0164 25.4775 32.1044C20.5046 38.1923 16.9768 45.3285 15.1592 52.9763C13.3416 60.6241 13.2815 68.5844 14.9835 76.2588C16.6855 83.9331 20.1052 91.1217 24.9856 97.2841C29.8659 103.446 36.0799 108.422 43.1602 111.837C50.2405 115.252 58.0029 117.017 65.8637 117C71.5515 116.987 77.1837 116.042 82.5395 114.215C85.937 113.056 89.8201 114.353 91.3937 117.58Z" fill="url(#paint0_linear_25_673)"/>
  <defs>
    <linearGradient id="paint0_linear_25_673" x1="4.15116" y1="12.2641" x2="131.356" y2="21.9712" gradientUnits="userSpaceOnUse">
      <stop stop-color="#FD6F00"/>
      <stop offset="1" stop-color="#E46400"/>
    </linearGradient>
  </defs>
</svg>